Cult director Takeshi Miike (Ichi the Killer, Audition) delivers a bravado period action film set at the end of Japan's feudal era in which a group of unemployed samurai are enlisted to bring down a sadistic lord and prevent him from ascending to the throne and plunging the country into a wartorn future.


Starring: Koji Yakusho, Takayuki Yamada, Yusuke Iseya, Goro Inagaki, Masachika Ichimura, Mikijiro Hira, Hiroki Matsukata, Ikki Sawamura, Arata Furuta
Director: Takashi Miike

 
http://uk.imdb.com/title/tt1436045/

 
http://stpicz.com/1767_vlcsnap_2013_02_04_12h47m04s162_zgmy.png 
http://stpicz.com/9594_vlcsnap_2013_02_04_12h50m51s169_ll6g.png 
http://stpicz.com/2122_vlcsnap_2013_02_04_12h48m49s251_yf49.png 
http://stpicz.com/1061_vlcsnap_2013_02_04_12h48m14s158_iype.png 
http://stpicz.com/1382_vlcsnap_2013_02_04_22h20m08s255_j60n.png 
http://stpicz.com/1910_vlcsnap_2013_02_04_22h19m35s150_ui00.png




General
Unique ID: 243005198391785006836044497087712400256 (0xB6D1194C6D96BCD1BCC1D36FF5F31380)
Complete name: D:13 Assassins (2010) 720p MKV x264 AC3 (Eng Sub) [Pioneer]
Format: Matroska
Format version: Version 4 / Version 2
File size: 1.22 GiB
Duration: 2h 5mn
Overall bit rate: 1 392 Kbps
Encoded date: UTC 2013-02-04 12:54:13
Writing application: mkvmerge v6.0.0 ('Coming Up For Air') built on Jan 20 2013 09:52:00
Writing library: libebml v1.3.0 + libmatroska v1.4.0

Video
ID: 1
Format: AVC
Format/Info: Advanced Video Codec
Format profile: High@L3.1
Format settings, CABAC: Yes
Format settings, ReFrames: 4 frames
Codec ID: V_MPEG4/ISO/AVC
Duration: 2h 5mn
Bit rate: 1 200 Kbps
Width: 1 280 pixels
Height: 528 pixels
Display aspect ratio: 2.40:1
Original display aspect ratio: 2.40:1
Frame rate mode: Constant
Frame rate: 23.976 fps
Color space: YUV
Chroma subsampling: 4:2:0
Bit depth: 8 bits
Scan type: Progressive
Bits/(Pixel*Frame): 0.074
Stream size: 1.03 GiB (84%)
Writing library: x264 core 120
Language: English
Default: Yes
Forced: No
Color primaries: BT.709
Transfer characteristics: BT.709
Matrix coefficients: BT.709

Audio
ID: 2
Format: AC-3
Format/Info: Audio Coding 3
Mode extension: CM (complete main)
Format settings, Endianness: Big
Codec ID: A_AC3
Duration: 2h 5mn
Bit rate mode: Constant
Bit rate: 192 Kbps
Channel(s): 6 channels
Channel positions: Front: L C R, Side: L R, LFE
Sampling rate: 48.0 KHz
Bit depth: 16 bits
Compression mode: Lossy
Stream size: 172 MiB (14%)
Language: Japanese
Default: Yes
Forced: No

Text
ID: 3
Format: UTF-8
Codec ID: S_TEXT/UTF8
Codec ID/Info: UTF-8 Plain Text
Language: English
Default: Yes
Forced: No